<svg xmlns="http://www.w3.org/2000/svg" xmlns:xlink="http://www.w3.org/1999/xlink" width="300" zoomAndPan="magnify" viewBox="0 0 224.87999 44.999999" height="60" preserveAspectRatio="xMidYMid meet" version="1.0"><defs><g/><clipPath id="e8e44d0194"><path d="M 101 5.554688 L 221.261719 5.554688 L 221.261719 43.941406 L 101 43.941406 Z M 101 5.554688 " clip-rule="nonzero"/></clipPath><clipPath id="eaf50301e0"><path d="M 128.992188 5.554688 L 215.886719 5.554688 C 217.726562 5.554688 219.425781 6.542969 220.339844 8.144531 C 221.25 9.746094 221.234375 11.710938 220.296875 13.296875 L 206.734375 36.199219 C 203.890625 40.996094 198.730469 43.941406 193.15625 43.941406 L 106.261719 43.941406 C 104.421875 43.941406 102.71875 42.953125 101.808594 41.351562 C 100.894531 39.75 100.910156 37.785156 101.851562 36.199219 L 115.414062 13.296875 C 118.253906 8.5 123.417969 5.554688 128.992188 5.554688 Z M 128.992188 5.554688 " clip-rule="nonzero"/></clipPath></defs><g clip-path="url(#e8e44d0194)"><g clip-path="url(#eaf50301e0)"><path fill="#f13024" d="M 97.265625 5.554688 L 224.863281 5.554688 L 224.863281 43.941406 L 97.265625 43.941406 Z M 97.265625 5.554688 " fill-opacity="1" fill-rule="nonzero"/></g></g><g fill="#ffffff" fill-opacity="1"><g transform="translate(-0.000000000000021305, 31.829937)"><g><path d="M 7.828125 -17.421875 L 7.828125 -14.484375 C 9.054688 -16.578125 10.941406 -17.644531 13.484375 -17.6875 L 13.484375 -12.640625 C 11.890625 -12.785156 10.582031 -12.519531 9.5625 -11.84375 C 8.550781 -11.164062 7.972656 -10.203125 7.828125 -8.953125 L 7.828125 0 L 2.234375 0 L 2.234375 -17.421875 Z M 7.828125 -17.421875 "/></g></g></g><g fill="#ffffff" fill-opacity="1"><g transform="translate(11.957241, 31.829937)"><g><path d="M 10.046875 -17.6875 C 12.441406 -17.6875 14.300781 -17.128906 15.625 -16.015625 C 16.957031 -14.910156 17.632812 -13.363281 17.65625 -11.375 L 17.65625 0 L 12.1875 0 L 12.1875 -2 C 11.039062 -0.488281 9.265625 0.265625 6.859375 0.265625 C 5.023438 0.265625 3.566406 -0.238281 2.484375 -1.25 C 1.410156 -2.269531 0.875 -3.585938 0.875 -5.203125 C 0.875 -6.859375 1.445312 -8.144531 2.59375 -9.0625 C 3.75 -9.976562 5.40625 -10.445312 7.5625 -10.46875 L 12.15625 -10.46875 L 12.15625 -10.734375 C 12.15625 -11.597656 11.867188 -12.269531 11.296875 -12.75 C 10.722656 -13.238281 9.878906 -13.484375 8.765625 -13.484375 C 7.191406 -13.484375 5.457031 -13 3.5625 -12.03125 L 1.96875 -15.71875 C 4.789062 -17.03125 7.484375 -17.6875 10.046875 -17.6875 Z M 8.5625 -3.53125 C 9.445312 -3.53125 10.222656 -3.75 10.890625 -4.1875 C 11.554688 -4.625 11.976562 -5.203125 12.15625 -5.921875 L 12.15625 -7.46875 L 8.625 -7.46875 C 6.945312 -7.46875 6.109375 -6.84375 6.109375 -5.59375 C 6.109375 -4.945312 6.320312 -4.441406 6.75 -4.078125 C 7.1875 -3.710938 7.789062 -3.53125 8.5625 -3.53125 Z M 8.5625 -3.53125 "/></g></g></g><g fill="#ffffff" fill-opacity="1"><g transform="translate(29.505539, 31.829937)"><g><path d="M 16.65625 -14.0625 L 8.109375 -4.203125 L 16.9375 -4.203125 L 16.9375 0 L 1.09375 0 L 1.09375 -3.359375 L 9.671875 -13.21875 L 1.421875 -13.21875 L 1.421875 -17.421875 L 16.65625 -17.421875 Z M 16.65625 -14.0625 "/></g></g></g><g fill="#ffffff" fill-opacity="1"><g transform="translate(45.534879, 31.829937)"><g><path d="M 12.125 0 L 6.40625 0 L -0.15625 -17.421875 L 5.59375 -17.421875 L 9.34375 -5.109375 L 13.125 -17.421875 L 18.6875 -17.421875 Z M 12.125 0 "/></g></g></g><g fill="#ffffff" fill-opacity="1"><g transform="translate(62.145948, 31.829937)"><g><path d="M 10.046875 -17.6875 C 12.441406 -17.6875 14.300781 -17.128906 15.625 -16.015625 C 16.957031 -14.910156 17.632812 -13.363281 17.65625 -11.375 L 17.65625 0 L 12.1875 0 L 12.1875 -2 C 11.039062 -0.488281 9.265625 0.265625 6.859375 0.265625 C 5.023438 0.265625 3.566406 -0.238281 2.484375 -1.25 C 1.410156 -2.269531 0.875 -3.585938 0.875 -5.203125 C 0.875 -6.859375 1.445312 -8.144531 2.59375 -9.0625 C 3.75 -9.976562 5.40625 -10.445312 7.5625 -10.46875 L 12.15625 -10.46875 L 12.15625 -10.734375 C 12.15625 -11.597656 11.867188 -12.269531 11.296875 -12.75 C 10.722656 -13.238281 9.878906 -13.484375 8.765625 -13.484375 C 7.191406 -13.484375 5.457031 -13 3.5625 -12.03125 L 1.96875 -15.71875 C 4.789062 -17.03125 7.484375 -17.6875 10.046875 -17.6875 Z M 8.5625 -3.53125 C 9.445312 -3.53125 10.222656 -3.75 10.890625 -4.1875 C 11.554688 -4.625 11.976562 -5.203125 12.15625 -5.921875 L 12.15625 -7.46875 L 8.625 -7.46875 C 6.945312 -7.46875 6.109375 -6.84375 6.109375 -5.59375 C 6.109375 -4.945312 6.320312 -4.441406 6.75 -4.078125 C 7.1875 -3.710938 7.789062 -3.53125 8.5625 -3.53125 Z M 8.5625 -3.53125 "/></g></g></g><g fill="#ffffff" fill-opacity="1"><g transform="translate(79.694247, 31.829937)"><g><path d="M 13.640625 -17.6875 C 15.554688 -17.6875 17.097656 -17.078125 18.265625 -15.859375 C 19.429688 -14.640625 20.015625 -13.015625 20.015625 -10.984375 L 20.015625 0 L 14.453125 0 L 14.453125 -9.4375 C 14.453125 -10.445312 14.175781 -11.25 13.625 -11.84375 C 13.070312 -12.4375 12.320312 -12.734375 11.375 -12.734375 C 10.382812 -12.734375 9.570312 -12.410156 8.9375 -11.765625 C 8.300781 -11.117188 7.929688 -10.269531 7.828125 -9.21875 L 7.828125 0 L 2.234375 0 L 2.234375 -17.421875 L 7.828125 -17.421875 L 7.828125 -14.578125 C 9.054688 -16.609375 10.992188 -17.644531 13.640625 -17.6875 Z M 13.640625 -17.6875 "/></g></g></g><g fill="#ffffff" fill-opacity="1"><g transform="translate(116.97832, 31.935117)"><g><path d="M 13.1875 -17.625 C 15.644531 -17.625 17.625 -16.796875 19.125 -15.140625 C 20.625 -13.492188 21.375 -11.320312 21.375 -8.625 C 21.375 -5.976562 20.640625 -3.847656 19.171875 -2.234375 C 17.703125 -0.617188 15.75 0.1875 13.3125 0.1875 C 11.03125 0.1875 9.253906 -0.648438 7.984375 -2.328125 L 7.984375 6.265625 L 2.390625 6.265625 L 2.390625 -17.421875 L 7.984375 -17.421875 L 7.984375 -15.125 C 9.273438 -16.789062 11.007812 -17.625 13.1875 -17.625 Z M 11.828125 -4.234375 C 12.992188 -4.234375 13.9375 -4.65625 14.65625 -5.5 C 15.382812 -6.351562 15.75 -7.445312 15.75 -8.78125 C 15.75 -10.125 15.382812 -11.210938 14.65625 -12.046875 C 13.9375 -12.890625 12.992188 -13.3125 11.828125 -13.3125 C 10.710938 -13.3125 9.789062 -12.890625 9.0625 -12.046875 C 8.34375 -11.210938 7.984375 -10.128906 7.984375 -8.796875 C 7.984375 -7.429688 8.335938 -6.328125 9.046875 -5.484375 C 9.765625 -4.648438 10.691406 -4.234375 11.828125 -4.234375 Z M 11.828125 -4.234375 "/></g></g></g><g fill="#ffffff" fill-opacity="1"><g transform="translate(137.27761, 31.935117)"><g><path d="M 10.046875 -17.6875 C 12.441406 -17.6875 14.300781 -17.128906 15.625 -16.015625 C 16.957031 -14.910156 17.632812 -13.363281 17.65625 -11.375 L 17.65625 0 L 12.1875 0 L 12.1875 -2 C 11.039062 -0.488281 9.265625 0.265625 6.859375 0.265625 C 5.023438 0.265625 3.566406 -0.238281 2.484375 -1.25 C 1.410156 -2.269531 0.875 -3.585938 0.875 -5.203125 C 0.875 -6.859375 1.445312 -8.144531 2.59375 -9.0625 C 3.75 -9.976562 5.40625 -10.445312 7.5625 -10.46875 L 12.15625 -10.46875 L 12.15625 -10.734375 C 12.15625 -11.597656 11.867188 -12.269531 11.296875 -12.75 C 10.722656 -13.238281 9.878906 -13.484375 8.765625 -13.484375 C 7.191406 -13.484375 5.457031 -13 3.5625 -12.03125 L 1.96875 -15.71875 C 4.789062 -17.03125 7.484375 -17.6875 10.046875 -17.6875 Z M 8.5625 -3.53125 C 9.445312 -3.53125 10.222656 -3.75 10.890625 -4.1875 C 11.554688 -4.625 11.976562 -5.203125 12.15625 -5.921875 L 12.15625 -7.46875 L 8.625 -7.46875 C 6.945312 -7.46875 6.109375 -6.84375 6.109375 -5.59375 C 6.109375 -4.945312 6.320312 -4.441406 6.75 -4.078125 C 7.1875 -3.710938 7.789062 -3.53125 8.5625 -3.53125 Z M 8.5625 -3.53125 "/></g></g></g><g fill="#ffffff" fill-opacity="1"><g transform="translate(154.82936, 31.935117)"><g><path d="M 13.640625 -17.6875 C 15.554688 -17.6875 17.097656 -17.078125 18.265625 -15.859375 C 19.429688 -14.640625 20.015625 -13.015625 20.015625 -10.984375 L 20.015625 0 L 14.453125 0 L 14.453125 -9.4375 C 14.453125 -10.445312 14.175781 -11.25 13.625 -11.84375 C 13.070312 -12.4375 12.320312 -12.734375 11.375 -12.734375 C 10.382812 -12.734375 9.570312 -12.410156 8.9375 -11.765625 C 8.300781 -11.117188 7.929688 -10.269531 7.828125 -9.21875 L 7.828125 0 L 2.234375 0 L 2.234375 -17.421875 L 7.828125 -17.421875 L 7.828125 -14.578125 C 9.054688 -16.609375 10.992188 -17.644531 13.640625 -17.6875 Z M 13.640625 -17.6875 "/></g></g></g><g fill="#ffffff" fill-opacity="1"><g transform="translate(174.740759, 31.935117)"><g><path d="M 10.046875 -17.6875 C 12.441406 -17.6875 14.300781 -17.128906 15.625 -16.015625 C 16.957031 -14.910156 17.632812 -13.363281 17.65625 -11.375 L 17.65625 0 L 12.1875 0 L 12.1875 -2 C 11.039062 -0.488281 9.265625 0.265625 6.859375 0.265625 C 5.023438 0.265625 3.566406 -0.238281 2.484375 -1.25 C 1.410156 -2.269531 0.875 -3.585938 0.875 -5.203125 C 0.875 -6.859375 1.445312 -8.144531 2.59375 -9.0625 C 3.75 -9.976562 5.40625 -10.445312 7.5625 -10.46875 L 12.15625 -10.46875 L 12.15625 -10.734375 C 12.15625 -11.597656 11.867188 -12.269531 11.296875 -12.75 C 10.722656 -13.238281 9.878906 -13.484375 8.765625 -13.484375 C 7.191406 -13.484375 5.457031 -13 3.5625 -12.03125 L 1.96875 -15.71875 C 4.789062 -17.03125 7.484375 -17.6875 10.046875 -17.6875 Z M 8.5625 -3.53125 C 9.445312 -3.53125 10.222656 -3.75 10.890625 -4.1875 C 11.554688 -4.625 11.976562 -5.203125 12.15625 -5.921875 L 12.15625 -7.46875 L 8.625 -7.46875 C 6.945312 -7.46875 6.109375 -6.84375 6.109375 -5.59375 C 6.109375 -4.945312 6.320312 -4.441406 6.75 -4.078125 C 7.1875 -3.710938 7.789062 -3.53125 8.5625 -3.53125 Z M 8.5625 -3.53125 "/></g></g></g><g fill="#ffffff" fill-opacity="1"><g transform="translate(192.292507, 31.935117)"><g><path d="M 1.96875 -4.390625 C 2.46875 -4.890625 3.113281 -5.140625 3.90625 -5.140625 C 4.707031 -5.140625 5.359375 -4.890625 5.859375 -4.390625 C 6.367188 -3.898438 6.625 -3.253906 6.625 -2.453125 C 6.625 -1.660156 6.367188 -1.007812 5.859375 -0.5 C 5.359375 0.0078125 4.707031 0.265625 3.90625 0.265625 C 3.113281 0.265625 2.46875 0.0078125 1.96875 -0.5 C 1.476562 -1.007812 1.234375 -1.660156 1.234375 -2.453125 C 1.234375 -3.253906 1.476562 -3.898438 1.96875 -4.390625 Z M 1.96875 -4.390625 "/></g></g></g></svg>