<svg xmlns="http://www.w3.org/2000/svg" xmlns:xlink="http://www.w3.org/1999/xlink" width="300" zoomAndPan="magnify" viewBox="0 0 224.87999 44.999999" height="60" preserveAspectRatio="xMidYMid meet" version="1.0"><defs><g/><clipPath id="3cc372bbfb"><path d="M 194.875 30.746094 L 198.625 30.746094 L 198.625 34.492188 L 194.875 34.492188 Z M 194.875 30.746094 " clip-rule="nonzero"/></clipPath></defs><g clip-path="url(#3cc372bbfb)"><path fill="#f13024" d="M 194.875 30.746094 L 198.625 30.746094 L 198.625 34.492188 L 194.875 34.492188 Z M 194.875 30.746094 " fill-opacity="1" fill-rule="nonzero"/></g><g fill="#ffffff" fill-opacity="1"><g transform="translate(0, 34.253662)"><g><path d="M 8.3125 -18.5 L 8.3125 -15.375 C 9.613281 -17.59375 11.613281 -18.726562 14.3125 -18.78125 L 14.3125 -13.421875 C 12.625 -13.578125 11.238281 -13.296875 10.15625 -12.578125 C 9.082031 -11.859375 8.46875 -10.835938 8.3125 -9.515625 L 8.3125 0 L 2.375 0 L 2.375 -18.5 Z M 8.3125 -18.5 "/></g></g></g><g fill="#ffffff" fill-opacity="1"><g transform="translate(12.696998, 34.253662)"><g><path d="M 10.671875 -18.78125 C 13.210938 -18.78125 15.1875 -18.1875 16.59375 -17 C 18 -15.820312 18.71875 -14.179688 18.75 -12.078125 L 18.75 0 L 12.9375 0 L 12.9375 -2.125 C 11.726562 -0.519531 9.84375 0.28125 7.28125 0.28125 C 5.332031 0.28125 3.785156 -0.253906 2.640625 -1.328125 C 1.492188 -2.410156 0.921875 -3.8125 0.921875 -5.53125 C 0.921875 -7.289062 1.53125 -8.65625 2.75 -9.625 C 3.976562 -10.601562 5.738281 -11.101562 8.03125 -11.125 L 12.90625 -11.125 L 12.90625 -11.390625 C 12.90625 -12.304688 12.601562 -13.019531 12 -13.53125 C 11.394531 -14.050781 10.492188 -14.3125 9.296875 -14.3125 C 7.628906 -14.3125 5.789062 -13.796875 3.78125 -12.765625 L 2.09375 -16.6875 C 5.09375 -18.082031 7.953125 -18.78125 10.671875 -18.78125 Z M 9.09375 -3.734375 C 10.03125 -3.734375 10.851562 -3.96875 11.5625 -4.4375 C 12.269531 -4.914062 12.71875 -5.53125 12.90625 -6.28125 L 12.90625 -7.9375 L 9.171875 -7.9375 C 7.378906 -7.9375 6.484375 -7.269531 6.484375 -5.9375 C 6.484375 -5.25 6.710938 -4.707031 7.171875 -4.3125 C 7.628906 -3.925781 8.269531 -3.734375 9.09375 -3.734375 Z M 9.09375 -3.734375 "/></g></g></g><g fill="#ffffff" fill-opacity="1"><g transform="translate(31.330941, 34.253662)"><g><path d="M 17.671875 -14.9375 L 8.609375 -4.46875 L 17.984375 -4.46875 L 17.984375 0 L 1.171875 0 L 1.171875 -3.5625 L 10.265625 -14.046875 L 1.515625 -14.046875 L 1.515625 -18.5 L 17.671875 -18.5 Z M 17.671875 -14.9375 "/></g></g></g><g fill="#ffffff" fill-opacity="1"><g transform="translate(48.351953, 34.253662)"><g><path d="M 12.875 0 L 6.796875 0 L -0.171875 -18.5 L 5.9375 -18.5 L 9.921875 -5.421875 L 13.9375 -18.5 L 19.84375 -18.5 Z M 12.875 0 "/></g></g></g><g fill="#ffffff" fill-opacity="1"><g transform="translate(65.990679, 34.253662)"><g><path d="M 10.671875 -18.78125 C 13.210938 -18.78125 15.1875 -18.1875 16.59375 -17 C 18 -15.820312 18.71875 -14.179688 18.75 -12.078125 L 18.75 0 L 12.9375 0 L 12.9375 -2.125 C 11.726562 -0.519531 9.84375 0.28125 7.28125 0.28125 C 5.332031 0.28125 3.785156 -0.253906 2.640625 -1.328125 C 1.492188 -2.410156 0.921875 -3.8125 0.921875 -5.53125 C 0.921875 -7.289062 1.53125 -8.65625 2.75 -9.625 C 3.976562 -10.601562 5.738281 -11.101562 8.03125 -11.125 L 12.90625 -11.125 L 12.90625 -11.390625 C 12.90625 -12.304688 12.601562 -13.019531 12 -13.53125 C 11.394531 -14.050781 10.492188 -14.3125 9.296875 -14.3125 C 7.628906 -14.3125 5.789062 -13.796875 3.78125 -12.765625 L 2.09375 -16.6875 C 5.09375 -18.082031 7.953125 -18.78125 10.671875 -18.78125 Z M 9.09375 -3.734375 C 10.03125 -3.734375 10.851562 -3.96875 11.5625 -4.4375 C 12.269531 -4.914062 12.71875 -5.53125 12.90625 -6.28125 L 12.90625 -7.9375 L 9.171875 -7.9375 C 7.378906 -7.9375 6.484375 -7.269531 6.484375 -5.9375 C 6.484375 -5.25 6.710938 -4.707031 7.171875 -4.3125 C 7.628906 -3.925781 8.269531 -3.734375 9.09375 -3.734375 Z M 9.09375 -3.734375 "/></g></g></g><g fill="#ffffff" fill-opacity="1"><g transform="translate(84.624624, 34.253662)"><g><path d="M 14.484375 -18.78125 C 16.523438 -18.78125 18.160156 -18.132812 19.390625 -16.84375 C 20.628906 -15.550781 21.25 -13.828125 21.25 -11.671875 L 21.25 0 L 15.34375 0 L 15.34375 -10.03125 C 15.34375 -11.101562 15.050781 -11.953125 14.46875 -12.578125 C 13.882812 -13.210938 13.085938 -13.53125 12.078125 -13.53125 C 11.023438 -13.53125 10.160156 -13.1875 9.484375 -12.5 C 8.816406 -11.8125 8.425781 -10.90625 8.3125 -9.78125 L 8.3125 0 L 2.375 0 L 2.375 -18.5 L 8.3125 -18.5 L 8.3125 -15.484375 C 9.613281 -17.628906 11.671875 -18.726562 14.484375 -18.78125 Z M 14.484375 -18.78125 "/></g></g></g><g fill="#ffffff" fill-opacity="1"><g transform="translate(112.43999, 33.939544)"><g><path d="M 12.703125 -18.1875 C 14.390625 -18.1875 15.921875 -17.800781 17.296875 -17.03125 C 18.671875 -16.269531 19.75 -15.191406 20.53125 -13.796875 C 21.3125 -12.398438 21.703125 -10.8125 21.703125 -9.03125 C 21.703125 -7.21875 21.3125 -5.613281 20.53125 -4.21875 C 19.75 -2.820312 18.675781 -1.738281 17.3125 -0.96875 C 15.957031 -0.207031 14.421875 0.171875 12.703125 0.171875 C 11.234375 0.171875 9.910156 -0.128906 8.734375 -0.734375 C 7.554688 -1.335938 6.585938 -2.226562 5.828125 -3.40625 L 5.828125 6.65625 L 3.40625 6.65625 L 3.40625 -18.0625 L 5.734375 -18.0625 L 5.734375 -14.484375 C 6.460938 -15.671875 7.425781 -16.582031 8.625 -17.21875 C 9.832031 -17.863281 11.191406 -18.1875 12.703125 -18.1875 Z M 12.53125 -1.984375 C 13.789062 -1.984375 14.929688 -2.273438 15.953125 -2.859375 C 16.984375 -3.441406 17.789062 -4.269531 18.375 -5.34375 C 18.96875 -6.425781 19.265625 -7.65625 19.265625 -9.03125 C 19.265625 -10.40625 18.96875 -11.625 18.375 -12.6875 C 17.789062 -13.75 16.984375 -14.578125 15.953125 -15.171875 C 14.929688 -15.765625 13.789062 -16.0625 12.53125 -16.0625 C 11.25 -16.0625 10.097656 -15.765625 9.078125 -15.171875 C 8.054688 -14.578125 7.253906 -13.75 6.671875 -12.6875 C 6.085938 -11.625 5.796875 -10.40625 5.796875 -9.03125 C 5.796875 -7.65625 6.085938 -6.425781 6.671875 -5.34375 C 7.253906 -4.269531 8.054688 -3.441406 9.078125 -2.859375 C 10.097656 -2.273438 11.25 -1.984375 12.53125 -1.984375 Z M 12.53125 -1.984375 "/></g></g></g><g fill="#ffffff" fill-opacity="1"><g transform="translate(133.750697, 33.939544)"><g><path d="M 9.71875 -18.1875 C 12.070312 -18.1875 13.878906 -17.597656 15.140625 -16.421875 C 16.398438 -15.242188 17.03125 -13.5 17.03125 -11.1875 L 17.03125 0 L 14.6875 0 L 14.6875 -2.8125 C 14.144531 -1.875 13.335938 -1.140625 12.265625 -0.609375 C 11.203125 -0.0859375 9.941406 0.171875 8.484375 0.171875 C 6.460938 0.171875 4.859375 -0.304688 3.671875 -1.265625 C 2.484375 -2.234375 1.890625 -3.503906 1.890625 -5.078125 C 1.890625 -6.609375 2.441406 -7.84375 3.546875 -8.78125 C 4.660156 -9.726562 6.429688 -10.203125 8.859375 -10.203125 L 14.59375 -10.203125 L 14.59375 -11.296875 C 14.59375 -12.847656 14.15625 -14.03125 13.28125 -14.84375 C 12.414062 -15.65625 11.144531 -16.0625 9.46875 -16.0625 C 8.332031 -16.0625 7.234375 -15.875 6.171875 -15.5 C 5.117188 -15.125 4.21875 -14.601562 3.46875 -13.9375 L 2.375 -15.75 C 3.28125 -16.53125 4.375 -17.128906 5.65625 -17.546875 C 6.945312 -17.972656 8.300781 -18.1875 9.71875 -18.1875 Z M 8.859375 -1.75 C 10.234375 -1.75 11.410156 -2.0625 12.390625 -2.6875 C 13.378906 -3.320312 14.113281 -4.234375 14.59375 -5.421875 L 14.59375 -8.375 L 8.921875 -8.375 C 5.835938 -8.375 4.296875 -7.300781 4.296875 -5.15625 C 4.296875 -4.09375 4.691406 -3.257812 5.484375 -2.65625 C 6.285156 -2.050781 7.410156 -1.75 8.859375 -1.75 Z M 8.859375 -1.75 "/></g></g></g><g fill="#ffffff" fill-opacity="1"><g transform="translate(152.041454, 33.939544)"><g><path d="M 12.59375 -18.1875 C 14.863281 -18.1875 16.664062 -17.53125 18 -16.21875 C 19.34375 -14.90625 20.015625 -12.988281 20.015625 -10.46875 L 20.015625 0 L 17.578125 0 L 17.578125 -10.234375 C 17.578125 -12.109375 17.109375 -13.535156 16.171875 -14.515625 C 15.234375 -15.503906 13.894531 -16 12.15625 -16 C 10.207031 -16 8.664062 -15.421875 7.53125 -14.265625 C 6.394531 -13.109375 5.828125 -11.507812 5.828125 -9.46875 L 5.828125 0 L 3.40625 0 L 3.40625 -18.0625 L 5.734375 -18.0625 L 5.734375 -14.734375 C 6.398438 -15.828125 7.320312 -16.675781 8.5 -17.28125 C 9.675781 -17.882812 11.039062 -18.1875 12.59375 -18.1875 Z M 12.59375 -18.1875 "/></g></g></g><g fill="#ffffff" fill-opacity="1"><g transform="translate(173.317843, 33.939544)"><g><path d="M 9.71875 -18.1875 C 12.070312 -18.1875 13.878906 -17.597656 15.140625 -16.421875 C 16.398438 -15.242188 17.03125 -13.5 17.03125 -11.1875 L 17.03125 0 L 14.6875 0 L 14.6875 -2.8125 C 14.144531 -1.875 13.335938 -1.140625 12.265625 -0.609375 C 11.203125 -0.0859375 9.941406 0.171875 8.484375 0.171875 C 6.460938 0.171875 4.859375 -0.304688 3.671875 -1.265625 C 2.484375 -2.234375 1.890625 -3.503906 1.890625 -5.078125 C 1.890625 -6.609375 2.441406 -7.84375 3.546875 -8.78125 C 4.660156 -9.726562 6.429688 -10.203125 8.859375 -10.203125 L 14.59375 -10.203125 L 14.59375 -11.296875 C 14.59375 -12.847656 14.15625 -14.03125 13.28125 -14.84375 C 12.414062 -15.65625 11.144531 -16.0625 9.46875 -16.0625 C 8.332031 -16.0625 7.234375 -15.875 6.171875 -15.5 C 5.117188 -15.125 4.21875 -14.601562 3.46875 -13.9375 L 2.375 -15.75 C 3.28125 -16.53125 4.375 -17.128906 5.65625 -17.546875 C 6.945312 -17.972656 8.300781 -18.1875 9.71875 -18.1875 Z M 8.859375 -1.75 C 10.234375 -1.75 11.410156 -2.0625 12.390625 -2.6875 C 13.378906 -3.320312 14.113281 -4.234375 14.59375 -5.421875 L 14.59375 -8.375 L 8.921875 -8.375 C 5.835938 -8.375 4.296875 -7.300781 4.296875 -5.15625 C 4.296875 -4.09375 4.691406 -3.257812 5.484375 -2.65625 C 6.285156 -2.050781 7.410156 -1.75 8.859375 -1.75 Z M 8.859375 -1.75 "/></g></g></g></svg>