<svg xmlns="http://www.w3.org/2000/svg" xmlns:xlink="http://www.w3.org/1999/xlink" width="300" zoomAndPan="magnify" viewBox="0 0 224.87999 44.999999" height="60" preserveAspectRatio="xMidYMid meet" version="1.0"><defs><g/><clipPath id="481256804c"><path d="M 42.710938 3 L 161.898438 3 L 161.898438 15 L 42.710938 15 Z M 42.710938 3 " clip-rule="nonzero"/></clipPath><clipPath id="7ad8cd3530"><path d="M 0 0.0117188 L 22 0.0117188 L 22 24 L 0 24 Z M 0 0.0117188 " clip-rule="nonzero"/></clipPath></defs><g clip-path="url(#481256804c)"><path fill="#f13024" d="M 43.492188 10.355469 C 43.164062 10.863281 42.71875 10.460938 43.003906 10.015625 C 53.457031 -6.421875 60.015625 15.878906 81.03125 14.003906 C 113.394531 11.121094 140.445312 1.921875 160.582031 9.84375 C 161.984375 10.394531 160.996094 11.554688 159.8125 11.015625 C 143.054688 3.347656 111.925781 11.375 80.894531 14.628906 C 59.867188 16.832031 53.921875 -5.816406 43.492188 10.355469 Z M 43.492188 10.355469 " fill-opacity="1" fill-rule="nonzero"/></g><g clip-path="url(#7ad8cd3530)"><g fill="#ffffff" fill-opacity="1"><g transform="translate(4.305286, 18.693182)"><g><path d="M 16.839844 -8.835938 C 17.027344 -9.097656 16.574219 -9.25 16.121094 -8.871094 C 10.496094 -0.640625 5.890625 4.832031 3.472656 4.113281 C 0.527344 3.246094 5.738281 -5.324219 4.339844 -6.34375 C 4.265625 -6.417969 3.699219 -6.757812 0.792969 -8.984375 C 3.925781 -13.515625 5.097656 -16.195312 2.984375 -17.140625 C -0.90625 -18.648438 -3.886719 -12.722656 -1.058594 -9.664062 C -0.605469 -9.210938 1.964844 -7.398438 2.757812 -6.796875 C 1.171875 -4.078125 -0.566406 0.492188 1.246094 3.472656 C 1.851562 4.453125 3.019531 4.90625 3.585938 4.871094 C 6.945312 4.644531 11.664062 -1.359375 16.839844 -8.835938 Z M 0.300781 -9.363281 C -1.585938 -10.796875 1.058594 -17.292969 2.792969 -16.535156 C 4.566406 -15.78125 2.378906 -12.421875 0.300781 -9.363281 Z M 0.300781 -9.363281 "/></g></g></g></g><g fill="#ffffff" fill-opacity="1"><g transform="translate(20.426049, 18.693182)"><g><path d="M 22.953125 -8.871094 C 22.953125 -9.0625 22.425781 -9.097656 22.3125 -8.910156 C 20.5 -6.265625 18.046875 -4.53125 12.570312 -4.226562 C 13.929688 -7.851562 13.96875 -13.214844 11.023438 -13.96875 C 9.628906 -14.347656 5.890625 -12.949219 1.738281 -4.832031 C 2 -6.757812 2.304688 -9.25 2.605469 -11.25 C 2.679688 -12.570312 0.152344 -11.890625 -0.113281 -9.816406 C -0.792969 -4.339844 -0.945312 -0.71875 -1.207031 0.453125 C -7.816406 10.609375 -10.796875 24.503906 -6.003906 24.238281 C -1.433594 23.972656 0.527344 12.042969 1.699219 -3.472656 C 5.890625 -12.082031 9.4375 -13.628906 10.761719 -13.476562 C 12.117188 -13.328125 12.003906 -8.15625 10.117188 -4.339844 C 5.359375 -4.339844 3.660156 -0.265625 5.210938 1.058594 C 7.25 2.792969 10.648438 0.378906 12.382812 -3.660156 C 17.519531 -3.8125 20.839844 -5.398438 22.953125 -8.871094 Z M -1.132812 1.207031 C -1.851562 10.796875 -2.757812 23.519531 -6.191406 23.824219 C -9.324219 23.40625 -7.929688 12.722656 -1.132812 1.207031 Z M 5.472656 0.71875 C 4.53125 -0.1875 5.664062 -3.738281 9.96875 -3.8125 C 8.382812 -0.0390625 6.039062 1.246094 5.472656 0.71875 Z M 5.472656 0.71875 "/></g></g></g><g fill="#ffffff" fill-opacity="1"><g transform="translate(59.077326, 30.385401)"><g><path d="M 4.265625 0 L 2.859375 -2.171875 L 1.859375 -2.171875 L 1.859375 0 L 0.859375 0 L 0.859375 -6.25 L 2.609375 -6.25 C 3.304688 -6.25 3.863281 -6.070312 4.28125 -5.71875 C 4.707031 -5.363281 4.921875 -4.867188 4.921875 -4.234375 C 4.921875 -3.847656 4.835938 -3.488281 4.671875 -3.15625 C 4.515625 -2.832031 4.257812 -2.582031 3.90625 -2.40625 L 5.4375 0 Z M 1.859375 -3.125 L 2.75 -3.125 C 3.15625 -3.125 3.445312 -3.234375 3.625 -3.453125 C 3.800781 -3.679688 3.890625 -3.929688 3.890625 -4.203125 C 3.890625 -4.359375 3.851562 -4.519531 3.78125 -4.6875 C 3.71875 -4.851562 3.601562 -4.992188 3.4375 -5.109375 C 3.269531 -5.222656 3.050781 -5.28125 2.78125 -5.28125 L 1.859375 -5.28125 Z M 1.859375 -3.125 "/></g></g></g><g fill="#ffffff" fill-opacity="1"><g transform="translate(67.034537, 30.385401)"><g><path d="M 4.0625 -1.46875 L 1.796875 -1.46875 L 1.1875 0 L 0.203125 0 L 2.96875 -6.5 L 3.03125 -6.5 L 5.796875 0 L 4.640625 0 Z M 3.734375 -2.328125 L 2.953125 -4.296875 L 2.140625 -2.328125 Z M 3.734375 -2.328125 "/></g></g></g><g fill="#ffffff" fill-opacity="1"><g transform="translate(75.240655, 30.385401)"><g><path d="M 5.6875 -0.953125 L 5.6875 0 L 0.40625 0 C 0.46875 -0.09375 1.023438 -0.9375 2.078125 -2.53125 C 2.941406 -3.875 3.539062 -4.789062 3.875 -5.28125 L 1.5625 -5.28125 C 1.375 -5.28125 1.203125 -5.332031 1.046875 -5.4375 C 0.890625 -5.550781 0.8125 -5.6875 0.8125 -5.84375 L 0.8125 -6.5625 L 1.734375 -6.5625 L 1.734375 -6.4375 C 1.734375 -6.34375 1.75 -6.285156 1.78125 -6.265625 C 1.8125 -6.253906 1.882812 -6.25 2 -6.25 L 5.640625 -6.25 L 2.125 -0.953125 Z M 5.6875 -0.953125 "/></g></g></g><g fill="#ffffff" fill-opacity="1"><g transform="translate(83.592687, 30.385401)"><g><path d="M 5.90625 -6.25 L 3.109375 0.296875 L 0.3125 -6.25 L 1.515625 -6.25 L 3.15625 -2.140625 L 4.734375 -6.25 Z M 5.90625 -6.25 "/></g></g></g><g fill="#ffffff" fill-opacity="1"><g transform="translate(92.030551, 30.385401)"><g><path d="M 4.0625 -1.46875 L 1.796875 -1.46875 L 1.1875 0 L 0.203125 0 L 2.96875 -6.5 L 3.03125 -6.5 L 5.796875 0 L 4.640625 0 Z M 3.734375 -2.328125 L 2.953125 -4.296875 L 2.140625 -2.328125 Z M 3.734375 -2.328125 "/></g></g></g><g fill="#ffffff" fill-opacity="1"><g transform="translate(100.236669, 30.385401)"><g><path d="M 6.375 -6.25 L 6.375 0.21875 L 6.34375 0.21875 L 1.84375 -4.140625 L 1.875 0 L 0.859375 0 L 0.859375 -6.453125 L 0.90625 -6.453125 L 5.390625 -2.046875 L 5.375 -6.25 Z M 6.375 -6.25 "/></g></g></g><g fill="#ffffff" fill-opacity="1"><g transform="translate(109.687329, 30.385401)"><g/></g></g><g fill="#ffffff" fill-opacity="1"><g transform="translate(114.645869, 30.385401)"><g><path d="M 2.5625 -6.203125 C 3.226562 -6.203125 3.75 -6.03125 4.125 -5.6875 C 4.507812 -5.351562 4.703125 -4.882812 4.703125 -4.28125 C 4.703125 -3.925781 4.628906 -3.597656 4.484375 -3.296875 C 4.347656 -2.992188 4.125 -2.75 3.8125 -2.5625 C 3.507812 -2.375 3.117188 -2.28125 2.640625 -2.28125 L 1.71875 -2.28125 L 1.71875 0 L 0.890625 0 L 0.890625 -6.203125 Z M 2.640625 -3.09375 C 2.941406 -3.09375 3.179688 -3.15625 3.359375 -3.28125 C 3.546875 -3.40625 3.679688 -3.554688 3.765625 -3.734375 C 3.847656 -3.910156 3.890625 -4.085938 3.890625 -4.265625 C 3.890625 -4.554688 3.789062 -4.816406 3.59375 -5.046875 C 3.394531 -5.285156 3.09375 -5.40625 2.6875 -5.40625 L 1.71875 -5.40625 L 1.71875 -3.09375 Z M 2.640625 -3.09375 "/></g></g></g><g fill="#ffffff" fill-opacity="1"><g transform="translate(121.959354, 30.385401)"><g><path d="M 4.140625 -1.625 L 1.765625 -1.625 L 1.09375 0 L 0.28125 0 L 2.984375 -6.453125 L 3.03125 -6.453125 L 5.75 0 L 4.78125 0 Z M 3.859375 -2.34375 L 2.984375 -4.609375 L 2.0625 -2.34375 Z M 3.859375 -2.34375 "/></g></g></g><g fill="#ffffff" fill-opacity="1"><g transform="translate(130.182639, 30.385401)"><g><path d="M 6.296875 -6.203125 L 6.296875 0.203125 L 6.265625 0.203125 L 1.71875 -4.421875 L 1.734375 0 L 0.890625 0 L 0.890625 -6.390625 L 0.9375 -6.390625 L 5.484375 -1.71875 L 5.46875 -6.203125 Z M 6.296875 -6.203125 "/></g></g></g><g fill="#ffffff" fill-opacity="1"><g transform="translate(139.581808, 30.385401)"><g><path d="M 4.140625 -1.625 L 1.765625 -1.625 L 1.09375 0 L 0.28125 0 L 2.984375 -6.453125 L 3.03125 -6.453125 L 5.75 0 L 4.78125 0 Z M 3.859375 -2.34375 L 2.984375 -4.609375 L 2.0625 -2.34375 Z M 3.859375 -2.34375 "/></g></g></g></svg>